<?xml version="1.0" encoding="UTF-8" standalone="no"?>
<!-- Created with Inkscape (http://www.inkscape.org/) -->

<svg
   xmlns:svg="http://www.w3.org/2000/svg"
   xmlns="http://www.w3.org/2000/svg"
   version="1.1"
   width="743.75"
   height="1052.5"
   id="svg2"
   xml:space="preserve"><defs
     id="defs6" /><g
     transform="matrix(1.25,0,0,-1.25,0,1052.5)"
     id="g12"><g
       transform="scale(0.1,0.1)"
       id="g14"><path
         d="m 952.5,775 c 42.008,-11.762 60.33,-16.082 69.33,-25.688 173.15,72.157 363.41,130.907 564.76,178.348 -14.41,6.586 -31.48,14.785 -51.59,24.84 C 972.5,765 502.5,1590 692.5,1540 1665.16,1284.04 1561.06,990.117 1565,982.5 c 0,0 65,-30 95.29,-34.762 C 3252.19,1307.21 5470,970 5470,970 c 40,-22.5 40,-362.5 0,-400 -1425.93,303.492 -2514.82,345.469 -3301.94,297.09 -1.41,-11.121 -44.02,-35.758 -48.06,-54.59 227.5,-387.5 -880,-1100 -670,-670 87.87,179.918 175,632.5 592.5,667.5 15.99,0 29.18,29.965 48.85,54.758 C 1595.83,832.309 1275,765 1054.9,702.578 1075,587.5 1234.99,472.949 80,170 -240.512,85.9336 497.039,902.531 952.5,775"
         id="path16"
         style="fill:#231f20;fill-opacity:1;fill-rule:nonzero;stroke:none" /><path
         d="m 3288.84,4234.42 c 0,-99.11 28.46,-191.58 77.64,-269.67 l -292.49,10.03 c 48.96,80.17 77.17,174.4 77.17,275.22 0,292.07 -236.77,528.85 -528.85,528.85 -292.07,0 -528.85,-236.78 -528.85,-528.85 0,-292.07 236.78,-528.84 528.85,-528.84 145.62,0 277.5,58.85 373.14,154.07 79.14,-197.01 252.57,-588.6 306.86,-385.23 l 137.47,383.61 c 91.49,-90.23 217.14,-145.92 355.8,-145.92 279.86,0 506.73,226.87 506.73,506.73 0,279.87 -226.87,506.74 -506.73,506.74 -279.87,0 -506.74,-226.87 -506.74,-506.74 z M 4784.8,2680.52 c 17.32,-361.72 -131.82,-1090.89 -131.82,-1090.89 -13.11,-140.92 -69.18,70.41 -106.26,232.78 C 4356.5,1520.56 4079.27,1347.42 3814.36,1247.43 3974.21,1208.88 4068.12,1120.28 4054.62,1060 4030,950 3860,1160 3809.9,989.422 3791.74,927.598 3675.45,931.625 3647.89,973.465 3525,1160 3440,930 3350.11,1022.23 c -110.78,113.66 -244.62,96.16 -330.85,-6.71 C 2935,915 2854.37,1163.29 2731.48,976.75 c -27.57,-41.84 -143.86,-45.867 -162.01,15.953 -50.1,170.587 -220.1,-39.418 -244.72,70.587 -10.15,45.32 40.41,106.64 134.07,150.67 -254.84,109.63 -456.92,297.29 -596.71,538.61 -35.84,-148.03 -80.58,-296.48 -92.11,-172.57 0,0 -153.62,751.04 -130.94,1106.8 0.21,12.82 0.52,25.68 0.94,38.58 44.62,1360 227.29,3061.14 444.62,2889.24 1528.85,-1209.24 2211.61,432.31 2284.23,53.07 204.22,-1066.53 335.15,-1986.61 400,-2595.38 14.96,-140.45 19.84,-270.8 15.95,-391.79 z M 2430,4239.8 c 0,108.02 87.56,195.58 195.58,195.58 108.01,0 195.58,-87.56 195.58,-195.58 0,-108.01 -87.57,-195.58 -195.58,-195.58 -108.02,0 -195.58,87.57 -195.58,195.58 z m 1168.85,-7.69 c 0,108.02 87.56,195.58 195.57,195.58 108.02,0 195.58,-87.56 195.58,-195.58 0,-108.02 -87.56,-195.57 -195.58,-195.57 -108.01,0 -195.57,87.55 -195.57,195.57"
         id="path18"
         style="fill:#231f20;fill-opacity:1;fill-rule:nonzero;stroke:none" /></g></g></svg>